<?xml version="1.0" encoding="UTF-8"?><svg id="a" xmlns="http://www.w3.org/2000/svg" width="101" height="31" viewBox="0 0 101 31"><rect x="25.66" y=".41" width="21.02" height="18.53" rx="2.62" ry="2.62" fill="red"/><path d="M.72,17.65V2.79c0-1.02,1.13-1.64,1.99-1.08l8.71,5.66c.43.28.98.28,1.41,0L21.55,1.71c.86-.56,1.99.06,1.99,1.08v14.86c0,.71-.58,1.29-1.29,1.29h-2.9c-.71,0-1.29-.58-1.29-1.29v-6.98c0-1.02-1.12-1.63-1.98-1.09l-3.26,2.06c-.42.27-.96.27-1.39,0l-3.2-2.05c-.86-.55-1.99.07-1.99,1.09v6.97c0,.71-.58,1.29-1.29,1.29h-2.95c-.71,0-1.29-.58-1.29-1.29Z" fill="#f1f2f2" stroke="#fff" stroke-miterlimit="10" stroke-width=".5"/><path d="M49.89.41h2.48c.49,0,.94.28,1.16.72l4.6,9.3c.47.96,1.84.96,2.31,0l4.58-9.3c.22-.44.67-.72,1.16-.72h2.48c.97,0,1.59,1.03,1.14,1.89l-8.43,15.95c-.22.42-.66.69-1.14.69h-1.91c-.48,0-.92-.26-1.14-.69l-8.43-15.95c-.45-.86.17-1.89,1.14-1.89Z" fill="#f1f2f2" stroke="#fff" stroke-miterlimit="10" stroke-width=".5"/><path d="M73.68.41h2.98c.71,0,1.29.58,1.29,1.29v15.95c0,.71-.58,1.29-1.29,1.29h-2.98c-.71,0-1.29-.58-1.29-1.29V1.7c0-.71.58-1.29,1.29-1.29Z" fill="#f1f2f2" stroke="#fff" stroke-miterlimit="10" stroke-width=".5"/><path d="M99.49,16.8h0c.73.84.14,2.14-.97,2.14h-16.63c-.71,0-1.29-.58-1.29-1.29V1.7c0-.71.58-1.29,1.29-1.29h16.7c1.1,0,1.7,1.3.98,2.13h0c-.33.38-.8.59-1.3.59h-10.82c-.71,0-1.29.58-1.29,1.29v2.61c0,.71.58,1.29,1.29,1.29h11.35c.75,0,1.36.61,1.36,1.36h0c0,.75-.61,1.36-1.36,1.36h-11.35c-.71,0-1.29.58-1.29,1.29v2.58c0,.71.58,1.29,1.29,1.29h10.75c.49,0,.96.21,1.29.59Z" fill="#f1f2f2" stroke="#fff" stroke-miterlimit="10" stroke-width=".5"/><path d="M18.46,30.35h-2.42c-.11,0-.22-.05-.29-.13l-4.6-5.24c-.22-.25-.04-.65.29-.65h3.71c.22,0,.39-.17.39-.39v-1.56c0-.22-.17-.39-.39-.39h-4.63c-.22,0-.39.17-.39.39v7.58c0,.22-.17.39-.39.39h-2.19c-.22,0-.39-.17-.39-.39v-9.02c0-.22.17-.39.39-.39h10.48c.22,0,.39.17.39.39v4.44c0,.22-.17.39-.39.39h-.27c-.96,0-1.47,1.13-.84,1.84l1.83,2.09c.22.25.04.65-.29.65Z" fill="#f1f2f2" stroke="#fff" stroke-miterlimit="10" stroke-width=".5"/><path d="M29.42,28.91c.11,0,.22.05.29.13l1.14,1.31h-10.59c-.22,0-.39-.17-.39-.39v-9.02c0-.22.17-.39.39-.39h10.62l-1.13,1.31c-.07.09-.18.14-.3.14h-6.25c-.22,0-.39.17-.39.39v1.96c0,.22.17.39.39.39h6.3c.4,0,.72.32.72.72h0c0,.4-.32.72-.72.72h-6.3c-.22,0-.39.17-.39.39v1.95c0,.22.17.39.39.39h6.21Z" fill="#f1f2f2" stroke="#fff" stroke-miterlimit="10" stroke-width=".5"/><path d="M31.81,20.55h1.98c.15,0,.28.08.35.22l2.78,5.61c.14.29.56.29.7,0l2.76-5.61c.07-.13.2-.22.35-.22h1.98c.29,0,.48.31.35.57l-4.77,9.02c-.07.13-.2.21-.35.21h-1.36c-.14,0-.28-.08-.35-.21l-4.77-9.02c-.14-.26.05-.57.35-.57Z" fill="#f1f2f2" stroke="#fff" stroke-miterlimit="10" stroke-width=".5"/><path d="M67.53,28.91c.11,0,.22.05.29.13l1.14,1.31h-10.59c-.22,0-.39-.17-.39-.39v-9.02c0-.22.17-.39.39-.39h10.62l-1.13,1.31c-.07.09-.18.14-.3.14h-6.25c-.22,0-.39.17-.39.39v1.96c0,.22.17.39.39.39h6.3c.4,0,.72.32.72.72h0c0,.4-.32.72-.72.72h-6.3c-.22,0-.39.17-.39.39v1.95c0,.22.17.39.39.39h6.21Z" fill="#f1f2f2" stroke="#fff" stroke-miterlimit="10" stroke-width=".5"/><path d="M69.83,29.63v-8.7c0-.22.17-.39.39-.39h2.16c.22,0,.39.17.39.39v4.46c0,.31.34.49.6.33l2.33-1.47c.13-.08.29-.08.42,0l2.33,1.47c.26.16.6-.02.6-.33v-4.46c0-.22.17-.39.39-.39h2.16c.22,0,.39.17.39.39v8.7c0,.31-.34.5-.6.33l-5.26-3.42c-.13-.08-.3-.08-.43,0l-5.26,3.42c-.26.17-.6-.02-.6-.33Z" fill="#f1f2f2" stroke="#fff" stroke-miterlimit="10" stroke-width=".5"/><path d="M94.18,28.98l-1.06,1.24c-.07.09-.18.14-.3.14h-8.48c-.11,0-.22-.05-.29-.13l-1.14-1.31h7.89l.52-.6v-1.75c0-.22-.17-.39-.39-.39h-7.25c-.22,0-.39-.17-.39-.39v-3.53c0-.09.03-.18.09-.25l1.12-1.31c.07-.09.18-.14.3-.14h9.82l-1.12,1.31c-.07.09-.18.14-.3.14h-6.36l-.63.71v1.63c0,.22.17.39.39.39h7.29c.22,0,.39.17.39.39v3.61c0,.09-.03.18-.09.25Z" fill="#f1f2f2" stroke="#fff" stroke-miterlimit="10" stroke-width=".5"/><path d="M42.34,8.6l-9.28-5.36c-.83-.48-1.86.12-1.86,1.07v10.72c0,.95,1.03,1.55,1.86,1.07l9.28-5.36c.83-.48.83-1.67,0-2.14Z" fill="#f1f2f2"/><rect x="44.19" y="20.24" width="11.81" height="10.41" rx="2.62" ry="2.62" fill="#f7931e"/><path d="M48.2,21.74h1.21c.12,0,.22.13.22.3v6.83c0,.16-.1.3-.22.3h-1.21c-.12,0-.22-.13-.22-.3v-6.83c0-.16.1-.3.22-.3Z" fill="#f1f2f2"/><path d="M50.96,21.74h1.21c.12,0,.22.13.22.3v6.83c0,.16-.1.3-.22.3h-1.21c-.12,0-.22-.13-.22-.3v-6.83c0-.16.1-.3.22-.3Z" fill="#f1f2f2"/></svg>